<svg width="1250" height="255" viewBox="0 0 1250 255" fill="none" xmlns="http://www.w3.org/2000/svg">
<g opacity="0.6">
<path fill-rule="evenodd" clip-rule="evenodd" d="M742.153 -582.251C822.334 -568.447 909.997 -566.981 957.801 -504.858C1014.11 -431.686 1047.67 -331.061 1015.47 -227.062C982.234 -119.702 888.19 -38.1138 793.422 26.0516C696.637 91.5834 591.369 136.157 488.619 129.664C373.133 122.365 245.096 95.1769 205.544 -11.1017C167.011 -114.641 247.269 -243.976 307.033 -358.263C354.509 -449.053 415.81 -537.213 504.549 -582.894C585.194 -624.408 663.442 -595.803 742.153 -582.251Z" stroke="white"/>
<path fill-rule="evenodd" clip-rule="evenodd" d="M803.976 -625.346C907.316 -605.756 953.462 -496.42 985.86 -395.05C1014.07 -306.773 1007.11 -206.419 969.444 -107.626C932.911 -11.8127 874.232 86.2489 784.458 133.159C700.615 176.97 625.848 119.337 540.675 116.422C427.889 112.562 280.355 195.936 213.4 113.614C144.866 29.3515 195.006 -122.293 249.695 -241.339C298.888 -348.422 393.59 -422.047 490.241 -489.007C590.887 -558.734 700.484 -644.966 803.976 -625.346Z" stroke="white"/>
<path fill-rule="evenodd" clip-rule="evenodd" d="M817.232 -601.306C920.167 -607.068 1019.13 -547.545 1045.35 -450.383C1070.1 -358.639 979.082 -259.477 936.252 -160.134C899.251 -74.3101 887.043 21.2372 815.388 83.005C733.893 153.255 626.27 206.542 539.364 181.989C455.288 158.235 452.214 44.2697 409.771 -31.593C362.189 -116.643 234.815 -176.108 279.671 -282.191C325.06 -389.537 476.402 -365.13 575.737 -424.099C663.774 -476.361 724.342 -596.107 817.232 -601.306Z" stroke="white"/>
<path fill-rule="evenodd" clip-rule="evenodd" d="M772.427 -613.381C868.317 -602.152 931.351 -519.064 959.996 -426.615C985.672 -343.749 937.971 -249.092 914.414 -155.133C885.615 -40.2715 907.05 100.73 809.383 174.092C711.14 247.888 603.133 175.137 499.437 156.577C394.641 137.821 254.569 163.42 211.222 67.0315C168.003 -29.0747 250.534 -157.852 308.583 -267.819C354.439 -354.689 421.831 -422.049 500.227 -480.454C586.849 -544.987 679.468 -624.266 772.427 -613.381Z" stroke="white"/>
<path fill-rule="evenodd" clip-rule="evenodd" d="M746.695 -570.464C817.524 -546.966 905.386 -555.575 947.126 -494.549C993.506 -426.738 989.793 -331.967 973.332 -239.106C951.834 -117.833 940.206 20.6344 841.012 104.058C735.295 192.967 596.224 200.619 482.641 173.57C373.731 147.634 287.629 71.5577 251.435 -36.3468C218.274 -135.207 259.729 -252.383 302.398 -363.776C343.355 -470.699 383.942 -600.373 485.6 -647.664C583.742 -693.32 657.516 -600.05 746.695 -570.464Z" stroke="white"/>
<path fill-rule="evenodd" clip-rule="evenodd" d="M723.548 -517.795C823.86 -503.515 973.893 -557.558 1008.25 -462.552C1042.98 -366.514 902.808 -263.935 854.336 -156.117C814.749 -68.0599 834.199 47.5369 754.536 101.794C674.706 156.165 595.174 88.9444 512.273 76.857C423.701 63.9428 301.495 106.622 260.028 29.6926C218.374 -47.5846 302.493 -155.497 334.707 -252.562C368.403 -354.092 360.199 -480.945 449.781 -542.05C539.606 -603.321 630.132 -531.093 723.548 -517.795Z" stroke="white"/>
<path fill-rule="evenodd" clip-rule="evenodd" d="M743.078 -557.227C815.755 -539.35 864.883 -487.825 906.779 -427.897C958.619 -353.745 1024.77 -281.28 1007.42 -179.114C987.447 -61.5453 920.251 70.8946 812.171 129.05C707.804 185.209 612.405 113.516 513.401 86.7089C425.988 63.0407 326.033 59.268 277.807 -15.6364C225.09 -97.5157 206.148 -212.489 252.308 -318.819C296.456 -420.514 402.494 -480.448 500.192 -527.909C581.769 -567.537 666.056 -576.172 743.078 -557.227Z" stroke="white"/>
<path fill-rule="evenodd" clip-rule="evenodd" d="M739.314 -570.082C823.953 -552.687 868.724 -474.363 906.127 -397.425C943.967 -319.589 973.547 -234.499 949.091 -138.572C922.009 -32.345 867.743 87.818 769.507 138.448C675.081 187.114 589.16 123.415 504.191 90.7243C438.174 65.3251 378.993 33.3458 341.232 -26.3265C298.101 -94.4838 254.744 -172.084 280.695 -262.454C307.816 -356.899 390.038 -430.498 473.339 -486.373C557.773 -543.009 653.633 -587.691 739.314 -570.082Z" stroke="white"/>
</g>
</svg>
